<svg width="1024" height="768" viewBox="0 0 1024 768" fill="none" xmlns="http://www.w3.org/2000/svg">
<g clip-path="url(#clip0_24_168)">
<path d="M583.262 112.382C584.939 107.331 585.519 101.981 584.963 96.6877C584.407 91.3949 582.729 86.2816 580.039 81.6894C576.051 74.7483 569.962 69.2529 562.65 65.9954C555.338 62.7379 547.18 61.8867 539.353 63.5644C534.906 58.6179 529.236 54.9286 522.912 52.867C516.588 50.8054 509.833 50.444 503.325 51.8193C496.817 53.1945 490.786 56.2579 485.837 60.7018C480.888 65.1457 477.195 70.8136 475.129 77.1363C469.915 78.2056 464.989 80.3756 460.68 83.5012C456.371 86.6269 452.779 90.6362 450.144 95.2613C446.113 102.191 444.39 110.223 445.224 118.196C446.059 126.169 449.407 133.67 454.786 139.615C453.102 144.663 452.516 150.013 453.067 155.306C453.618 160.599 455.293 165.713 457.979 170.307C461.972 177.251 468.066 182.747 475.384 186.005C482.701 189.262 490.864 190.112 498.696 188.433C502.229 192.411 506.57 195.59 511.429 197.757C516.288 199.924 521.554 201.03 526.874 201C534.897 201.007 542.715 198.465 549.199 193.741C555.683 189.016 560.497 182.353 562.948 174.714C568.162 173.643 573.088 171.472 577.396 168.346C581.705 165.221 585.297 161.212 587.934 156.588C591.917 149.669 593.61 141.667 592.771 133.727C591.932 125.787 588.604 118.316 583.262 112.382ZM526.874 191.183C520.304 191.193 513.939 188.89 508.897 184.678L509.784 184.175L539.648 166.936C540.391 166.5 541.009 165.879 541.439 165.132C541.869 164.385 542.098 163.54 542.103 162.678V120.573L554.728 127.876C554.79 127.908 554.844 127.954 554.885 128.01C554.927 128.067 554.954 128.132 554.965 128.201V163.093C554.949 170.538 551.985 177.673 546.72 182.938C541.455 188.202 534.32 191.167 526.874 191.183ZM466.495 165.399C463.2 159.709 462.017 153.039 463.154 146.563L464.041 147.096L493.935 164.334C494.675 164.768 495.517 164.997 496.374 164.997C497.232 164.997 498.074 164.768 498.814 164.334L535.331 143.281V157.859C535.328 157.934 535.307 158.008 535.271 158.075C535.236 158.141 535.185 158.199 535.124 158.243L504.875 175.689C498.42 179.408 490.752 180.413 483.556 178.483C476.36 176.554 470.224 171.848 466.495 165.399ZM458.63 100.348C461.948 94.6211 467.185 90.2533 473.414 88.0175V123.5C473.403 124.357 473.622 125.202 474.049 125.945C474.475 126.689 475.093 127.305 475.839 127.728L512.179 148.693L499.553 155.996C499.485 156.032 499.409 156.051 499.331 156.051C499.254 156.051 499.178 156.032 499.109 155.996L468.92 138.58C462.477 134.845 457.776 128.709 455.847 121.516C453.919 114.322 454.919 106.657 458.63 100.2V100.348ZM562.357 124.446L525.899 103.275L538.495 96C538.563 95.9637 538.64 95.9448 538.717 95.9448C538.794 95.9448 538.87 95.9637 538.939 96L569.128 113.446C573.744 116.109 577.507 120.031 579.978 124.753C582.449 129.474 583.525 134.802 583.082 140.113C582.639 145.423 580.694 150.498 577.474 154.745C574.255 158.992 569.894 162.236 564.9 164.097V128.614C564.874 127.759 564.626 126.924 564.18 126.194C563.734 125.463 563.106 124.861 562.357 124.446ZM574.924 105.552L574.036 105.019L544.202 87.6332C543.458 87.1964 542.61 86.9662 541.748 86.9662C540.885 86.9662 540.037 87.1964 539.293 87.6332L502.806 108.686V94.1088C502.799 94.0347 502.811 93.9598 502.842 93.8922C502.873 93.8245 502.922 93.7665 502.984 93.7244L533.173 76.3082C537.8 73.6426 543.09 72.3496 548.425 72.5804C553.76 72.8111 558.919 74.5561 563.298 77.6112C567.678 80.6662 571.097 84.9051 573.156 89.8321C575.215 94.759 575.828 100.17 574.924 105.433L574.924 105.552ZM495.916 131.394L483.291 124.12C483.227 124.082 483.173 124.031 483.132 123.969C483.091 123.908 483.064 123.839 483.053 123.766V88.9638C483.06 83.6249 484.587 78.3982 487.455 73.895C490.323 69.3918 494.413 65.7981 499.248 63.534C504.084 61.27 509.463 60.4292 514.759 61.1099C520.054 61.7906 525.046 63.9648 529.151 67.3782L528.264 67.8813L498.4 85.1188C497.657 85.5547 497.04 86.1765 496.609 86.923C496.179 87.6696 495.95 88.5152 495.946 89.3769L495.916 131.394ZM502.776 116.61L519.038 107.236L535.331 116.61V135.356L519.098 144.729L502.806 135.356L502.776 116.61Z" fill="#C4B5A0"/>
</g>
<g clip-path="url(#clip1_24_168)">
<mask id="mask0_24_168" style="mask-type:alpha" maskUnits="userSpaceOnUse" x="739" y="566" width="151" height="151">
<path d="M814.377 566C815.957 566 817.334 567.08 817.72 568.613C818.898 573.303 820.451 577.89 822.364 582.331C827.363 593.947 834.223 604.112 842.932 612.822C851.646 621.533 861.809 628.393 873.423 633.392C877.865 635.304 882.453 636.857 887.143 638.036C888.676 638.422 889.754 639.797 889.754 641.377C889.754 642.957 888.676 644.334 887.14 644.72C882.451 645.898 877.864 647.451 873.423 649.364C861.807 654.363 851.644 661.223 842.932 669.932C834.223 678.646 827.363 688.809 822.364 700.423C820.451 704.864 818.897 709.452 817.717 714.143C817.531 714.888 817.101 715.549 816.496 716.022C815.891 716.495 815.145 716.752 814.377 716.754C812.797 716.754 811.422 715.676 811.036 714.14C809.857 709.451 808.303 704.863 806.39 700.423C801.393 688.807 794.535 678.644 785.822 669.932C777.11 661.223 766.947 654.363 755.331 649.364C750.89 647.451 746.303 645.897 741.613 644.717C740.868 644.531 740.207 644.102 739.733 643.497C739.26 642.892 739.002 642.147 739 641.379C739 639.8 740.08 638.424 741.613 638.039C746.303 636.859 750.89 635.306 755.331 633.392C766.947 628.396 777.112 621.535 785.822 612.824C794.533 604.115 801.393 593.949 806.392 582.334C808.304 577.892 809.857 573.305 811.036 568.616C811.222 567.87 811.652 567.207 812.257 566.734C812.862 566.26 813.608 566.002 814.377 566Z" fill="black"/>
<path d="M814.377 566C815.957 566 817.334 567.08 817.72 568.613C818.898 573.303 820.451 577.89 822.364 582.331C827.363 593.947 834.223 604.112 842.932 612.822C851.646 621.533 861.809 628.393 873.423 633.392C877.865 635.304 882.453 636.857 887.143 638.036C888.676 638.422 889.754 639.797 889.754 641.377C889.754 642.957 888.676 644.334 887.14 644.72C882.451 645.898 877.864 647.451 873.423 649.364C861.807 654.363 851.644 661.223 842.932 669.932C834.223 678.646 827.363 688.809 822.364 700.423C820.451 704.864 818.897 709.452 817.717 714.143C817.531 714.888 817.101 715.549 816.496 716.022C815.891 716.495 815.145 716.752 814.377 716.754C812.797 716.754 811.422 715.676 811.036 714.14C809.857 709.451 808.303 704.863 806.39 700.423C801.393 688.807 794.535 678.644 785.822 669.932C777.11 661.223 766.947 654.363 755.331 649.364C750.89 647.451 746.303 645.897 741.613 644.717C740.868 644.531 740.207 644.102 739.733 643.497C739.26 642.892 739.002 642.147 739 641.379C739 639.8 740.08 638.424 741.613 638.039C746.303 636.859 750.89 635.306 755.331 633.392C766.947 628.396 777.112 621.535 785.822 612.824C794.533 604.115 801.393 593.949 806.392 582.334C808.304 577.892 809.857 573.305 811.036 568.616C811.222 567.87 811.652 567.207 812.257 566.734C812.862 566.26 813.608 566.002 814.377 566Z" fill="url(#paint0_linear_24_168)"/>
</mask>
<g mask="url(#mask0_24_168)">
<g filter="url(#filter0_f_24_168)">
<path d="M725.389 683.859C742.808 690.045 762.828 678.446 770.106 657.952C777.384 637.46 769.163 615.832 751.744 609.646C734.326 603.46 714.306 615.059 707.025 635.551C699.749 656.045 707.971 677.673 725.389 683.859Z" fill="#C4B5A0"/>
</g>
<g filter="url(#filter1_f_24_168)">
<path d="M802.729 616.292C826.657 616.292 846.057 596.465 846.057 572.01C846.057 547.552 826.659 527.727 802.729 527.727C778.799 527.727 759.397 547.555 759.397 572.01C759.397 596.465 778.797 616.292 802.729 616.292Z" fill="#C4B5A0"/>
</g>
<g filter="url(#filter2_f_24_168)">
<path d="M785.889 757.905C810.869 756.685 829.837 729.461 828.255 697.101C826.675 664.74 805.14 639.495 780.16 640.717C755.18 641.939 736.212 669.161 737.794 701.521C739.376 733.882 760.909 759.127 785.889 757.905Z" fill="#C4B5A0"/>
</g>
<g filter="url(#filter3_f_24_168)">
<path d="M785.889 757.905C810.869 756.685 829.837 729.461 828.255 697.101C826.675 664.74 805.14 639.495 780.16 640.717C755.18 641.939 736.212 669.161 737.794 701.521C739.376 733.882 760.909 759.127 785.889 757.905Z" fill="#C4B5A0"/>
</g>
<g filter="url(#filter4_f_24_168)">
<path d="M810.908 738.328C831.849 725.586 837.454 696.569 823.428 673.514C809.401 650.458 781.052 642.097 760.11 654.837C739.167 667.581 733.562 696.599 747.588 719.655C761.62 742.71 789.966 751.07 810.908 738.328Z" fill="#C4B5A0"/>
</g>
<g filter="url(#filter5_f_24_168)">
<path d="M895.554 665.876C919.092 665.876 938.174 647.501 938.174 624.837C938.174 602.17 919.092 583.795 895.554 583.795C872.017 583.795 852.935 602.17 852.935 624.837C852.935 647.503 872.017 665.876 895.554 665.876Z" fill="#C4B5A0"/>
</g>
<g filter="url(#filter6_f_24_168)">
<path d="M708.649 661.116C730.323 677.596 761.985 672.427 779.368 649.566C796.752 626.707 793.276 594.813 771.602 578.333C749.928 561.851 718.269 567.02 700.883 589.881C683.499 612.74 686.977 644.636 708.649 661.116Z" fill="#C4B5A0"/>
</g>
<g filter="url(#filter7_f_24_168)">
<path d="M819.704 685.476C845.571 703.261 879.862 698.309 896.291 674.409C912.722 650.511 905.07 616.722 879.2 598.937C853.33 581.147 819.042 586.104 802.61 609.999C786.182 633.899 793.832 667.688 819.701 685.476H819.704Z" fill="#C4B5A0"/>
</g>
<g filter="url(#filter8_f_24_168)">
<path d="M866.732 560.573C873.313 569.522 864.855 586.917 847.843 599.431C830.829 611.946 811.703 614.836 805.122 605.89C798.54 596.939 806.996 579.541 824.008 567.029C841.023 554.515 860.151 551.625 866.73 560.571L866.732 560.573Z" fill="#C4B5A0"/>
</g>
<g filter="url(#filter9_f_24_168)">
<path d="M812.704 603.411C839.015 579.005 848.045 545.961 832.876 529.607C817.706 513.252 784.077 519.775 757.766 544.182C731.455 568.588 722.423 601.631 737.595 617.986C752.764 634.34 786.393 627.817 812.704 603.411Z" fill="#C4B5A0"/>
</g>
<g filter="url(#filter10_f_24_168)">
<path d="M758.769 691.07C774.408 702.262 792.361 703.963 798.87 694.87C805.38 685.776 797.978 669.33 782.339 658.138C766.703 646.945 748.748 645.245 742.241 654.337C735.731 663.432 743.13 679.877 758.769 691.07Z" fill="#C4B5A0"/>
</g>
<g filter="url(#filter11_f_24_168)">
<path d="M788.847 649.349C804.486 660.541 822.439 662.242 828.948 653.149C835.457 644.054 828.056 627.609 812.417 616.417C796.78 605.224 778.825 603.524 772.318 612.616C765.809 621.711 773.208 638.156 788.847 649.349Z" fill="#C4B5A0"/>
</g>
</g>
</g>
<path d="M479.415 193.353C479.057 192.019 477.687 191.228 476.353 191.585L454.62 197.409C453.286 197.767 452.495 199.137 452.852 200.471C453.209 201.805 454.58 202.596 455.914 202.239L475.232 197.062L480.409 216.38C480.766 217.714 482.137 218.505 483.471 218.148C484.805 217.791 485.596 216.42 485.239 215.086L479.415 193.353ZM253 582L255.165 583.25L479.165 195.25L477 194L474.835 192.75L250.835 580.75L253 582Z" fill="#2D241F"/>
<path d="M784.354 584.415C785.688 584.772 787.058 583.98 787.415 582.646L793.228 560.91C793.585 559.576 792.792 558.205 791.459 557.849C790.125 557.492 788.754 558.284 788.398 559.618L783.231 578.939L763.91 573.772C762.576 573.415 761.205 574.208 760.849 575.541C760.492 576.875 761.284 578.246 762.618 578.602L784.354 584.415ZM559 191L556.836 192.251L782.836 583.251L785 582L787.164 580.749L561.164 189.749L559 191Z" fill="#2D241F"/>
<path d="M270.236 643.228C269.258 644.203 269.254 645.785 270.228 646.764L286.104 662.708C287.078 663.687 288.661 663.69 289.639 662.716C290.618 661.742 290.621 660.159 289.647 659.181L275.536 645.008L289.708 630.896C290.687 629.922 290.69 628.339 289.716 627.361C288.742 626.382 287.159 626.379 286.181 627.353L270.236 643.228ZM732 646L732.005 643.5L272.005 642.5L272 645L271.995 647.5L731.995 648.5L732 646Z" fill="#2D241F"/>
<g clip-path="url(#clip2_24_168)">
<path d="M143.44 666.694L172.971 650.124L173.468 648.685L172.971 647.885H171.532L166.597 647.581L149.723 647.125L135.089 646.516L120.912 645.756L117.344 644.996L114 640.588L114.345 638.389L117.344 636.372L121.641 636.747L131.137 637.396L145.386 638.379L155.723 638.987L171.035 640.578H173.468L173.812 639.595L172.981 638.987L172.333 638.379L157.587 628.386L141.626 617.827L133.265 611.746L128.745 608.665L126.465 605.777L125.482 599.473L129.586 594.954L135.099 595.328L136.508 595.703L142.092 600L154.02 609.233L169.596 620.705L171.877 622.6L172.789 621.951L172.9 621.495L171.877 619.782L163.404 604.47L154.365 588.893L150.341 582.438L149.277 578.566C148.902 576.975 148.629 575.638 148.629 574.006L153.301 567.662L155.885 566.831L162.117 567.662L164.742 569.942L168.613 578.8L174.886 592.744L184.615 611.705L187.463 617.33L188.983 622.539L189.551 624.13H190.534V623.218L191.334 612.536L192.814 599.423L194.253 582.549L194.75 577.796L197.101 572.101L201.773 569.02L205.421 570.763L208.421 575.06L208.005 577.837L206.221 589.43L202.725 607.591L200.445 619.752H201.773L203.293 618.232L209.444 610.064L219.781 597.143L224.341 592.015L229.662 586.35L233.077 583.654H239.533L244.286 590.717L242.157 598.014L235.509 606.446L229.996 613.59L222.092 624.231L217.156 632.744L217.612 633.423L218.788 633.312L236.644 629.511L246.292 627.768L257.805 625.792L263.014 628.224L263.581 630.697L261.534 635.754L249.221 638.794L234.78 641.682L213.275 646.77L213.011 646.962L213.315 647.337L223.004 648.249L227.149 648.472H237.293L256.183 649.881L261.119 653.144L264.078 657.137L263.581 660.177L255.981 664.049L245.725 661.616L221.788 655.921L213.579 653.874H212.444V654.553L219.285 661.242L231.821 672.561L247.518 687.155L248.319 690.763L246.302 693.61L244.174 693.306L230.381 682.929L225.061 678.257L213.011 668.113H212.211V669.177L214.988 673.24L229.652 695.282L230.412 702.042L229.348 704.241L225.547 705.569L221.372 704.809L212.788 692.759L203.931 679.189L196.787 667.028L195.915 667.525L191.699 712.936L189.723 715.257L185.163 717L181.362 714.112L179.346 709.44L181.362 700.208L183.794 688.158L185.771 678.581L187.554 666.684L188.618 662.731L188.547 662.468L187.676 662.579L178.707 674.892L165.066 693.327L154.273 704.88L151.689 705.903L147.21 703.582L147.625 699.437L150.129 695.749L165.066 676.747L174.076 664.971L179.893 658.171L179.852 657.188H179.508L139.832 682.949L132.769 683.861L129.728 681.013L130.103 676.342L131.542 674.821L143.47 666.613L143.43 666.653L143.44 666.694Z" fill="#C4B5A0"/>
</g>
<path d="M412.835 466.312H405.369C405.233 465.347 404.955 464.489 404.534 463.739C404.114 462.977 403.574 462.33 402.915 461.795C402.256 461.261 401.494 460.852 400.631 460.568C399.778 460.284 398.852 460.142 397.852 460.142C396.045 460.142 394.472 460.591 393.131 461.489C391.79 462.375 390.75 463.67 390.011 465.375C389.273 467.068 388.903 469.125 388.903 471.545C388.903 474.034 389.273 476.125 390.011 477.818C390.761 479.511 391.807 480.79 393.148 481.653C394.489 482.517 396.04 482.949 397.801 482.949C398.79 482.949 399.705 482.818 400.545 482.557C401.398 482.295 402.153 481.915 402.812 481.415C403.472 480.903 404.017 480.284 404.449 479.557C404.892 478.83 405.199 478 405.369 477.068L412.835 477.102C412.642 478.705 412.159 480.25 411.386 481.739C410.625 483.216 409.597 484.54 408.301 485.71C407.017 486.869 405.483 487.79 403.699 488.472C401.926 489.142 399.92 489.477 397.682 489.477C394.568 489.477 391.784 488.773 389.33 487.364C386.886 485.955 384.955 483.915 383.534 481.244C382.125 478.574 381.42 475.341 381.42 471.545C381.42 467.739 382.136 464.5 383.568 461.83C385 459.159 386.943 457.125 389.398 455.727C391.852 454.318 394.614 453.614 397.682 453.614C399.705 453.614 401.58 453.898 403.307 454.466C405.045 455.034 406.585 455.864 407.926 456.955C409.267 458.034 410.358 459.358 411.199 460.926C412.051 462.494 412.597 464.29 412.835 466.312ZM429.821 489.511C427.173 489.511 424.884 488.949 422.952 487.824C421.031 486.687 419.548 485.108 418.503 483.085C417.457 481.051 416.935 478.693 416.935 476.011C416.935 473.307 417.457 470.943 418.503 468.92C419.548 466.886 421.031 465.307 422.952 464.182C424.884 463.045 427.173 462.477 429.821 462.477C432.469 462.477 434.753 463.045 436.673 464.182C438.605 465.307 440.094 466.886 441.139 468.92C442.185 470.943 442.707 473.307 442.707 476.011C442.707 478.693 442.185 481.051 441.139 483.085C440.094 485.108 438.605 486.687 436.673 487.824C434.753 488.949 432.469 489.511 429.821 489.511ZM429.855 483.886C431.06 483.886 432.065 483.545 432.872 482.864C433.679 482.17 434.287 481.227 434.696 480.034C435.116 478.841 435.327 477.483 435.327 475.96C435.327 474.438 435.116 473.08 434.696 471.886C434.287 470.693 433.679 469.75 432.872 469.057C432.065 468.364 431.06 468.017 429.855 468.017C428.639 468.017 427.616 468.364 426.787 469.057C425.969 469.75 425.349 470.693 424.929 471.886C424.52 473.08 424.315 474.438 424.315 475.96C424.315 477.483 424.52 478.841 424.929 480.034C425.349 481.227 425.969 482.17 426.787 482.864C427.616 483.545 428.639 483.886 429.855 483.886ZM454.69 473.864V489H447.429V462.818H454.349V467.438H454.656C455.236 465.915 456.207 464.71 457.571 463.824C458.935 462.926 460.588 462.477 462.531 462.477C464.349 462.477 465.935 462.875 467.287 463.67C468.639 464.466 469.69 465.602 470.44 467.08C471.19 468.545 471.565 470.295 471.565 472.33V489H464.304V473.625C464.315 472.023 463.906 470.773 463.077 469.875C462.247 468.966 461.105 468.511 459.651 468.511C458.673 468.511 457.81 468.722 457.06 469.142C456.321 469.562 455.741 470.176 455.321 470.983C454.912 471.778 454.702 472.739 454.69 473.864ZM499.072 470.284L492.425 470.693C492.311 470.125 492.067 469.614 491.692 469.159C491.317 468.693 490.822 468.324 490.209 468.051C489.607 467.767 488.885 467.625 488.044 467.625C486.919 467.625 485.97 467.864 485.197 468.341C484.425 468.807 484.038 469.432 484.038 470.216C484.038 470.841 484.288 471.369 484.788 471.801C485.288 472.233 486.146 472.58 487.362 472.841L492.101 473.795C494.646 474.318 496.544 475.159 497.794 476.318C499.044 477.477 499.669 479 499.669 480.886C499.669 482.602 499.163 484.108 498.152 485.403C497.152 486.699 495.777 487.71 494.027 488.438C492.288 489.153 490.283 489.511 488.01 489.511C484.544 489.511 481.783 488.79 479.726 487.347C477.68 485.892 476.482 483.915 476.129 481.415L483.271 481.04C483.487 482.097 484.01 482.903 484.839 483.46C485.669 484.006 486.732 484.278 488.027 484.278C489.3 484.278 490.322 484.034 491.095 483.545C491.879 483.045 492.277 482.403 492.288 481.619C492.277 480.96 491.999 480.42 491.453 480C490.908 479.568 490.067 479.239 488.93 479.011L484.396 478.108C481.839 477.597 479.936 476.71 478.686 475.449C477.447 474.187 476.828 472.58 476.828 470.625C476.828 468.943 477.283 467.494 478.192 466.278C479.112 465.062 480.402 464.125 482.061 463.466C483.732 462.807 485.686 462.477 487.925 462.477C491.232 462.477 493.834 463.176 495.732 464.574C497.641 465.972 498.754 467.875 499.072 470.284ZM516.173 489.511C513.48 489.511 511.162 488.966 509.219 487.875C507.287 486.773 505.798 485.216 504.753 483.205C503.707 481.182 503.185 478.79 503.185 476.028C503.185 473.335 503.707 470.972 504.753 468.938C505.798 466.903 507.27 465.318 509.168 464.182C511.077 463.045 513.315 462.477 515.884 462.477C517.611 462.477 519.219 462.756 520.707 463.312C522.207 463.858 523.514 464.682 524.628 465.784C525.753 466.886 526.628 468.273 527.253 469.943C527.878 471.602 528.19 473.545 528.19 475.773V477.767H506.082V473.267H521.355C521.355 472.222 521.128 471.295 520.673 470.489C520.219 469.682 519.588 469.051 518.781 468.597C517.986 468.131 517.06 467.898 516.003 467.898C514.901 467.898 513.923 468.153 513.071 468.665C512.23 469.165 511.571 469.841 511.094 470.693C510.616 471.534 510.372 472.472 510.361 473.506V477.784C510.361 479.08 510.599 480.199 511.077 481.142C511.565 482.085 512.253 482.812 513.139 483.324C514.026 483.835 515.077 484.091 516.293 484.091C517.099 484.091 517.838 483.977 518.509 483.75C519.179 483.523 519.753 483.182 520.23 482.727C520.707 482.273 521.071 481.716 521.321 481.057L528.037 481.5C527.696 483.114 526.997 484.523 525.94 485.727C524.895 486.92 523.543 487.852 521.884 488.523C520.236 489.182 518.332 489.511 516.173 489.511ZM540.19 473.864V489H532.929V462.818H539.849V467.438H540.156C540.736 465.915 541.707 464.71 543.071 463.824C544.435 462.926 546.088 462.477 548.031 462.477C549.849 462.477 551.435 462.875 552.787 463.67C554.139 464.466 555.19 465.602 555.94 467.08C556.69 468.545 557.065 470.295 557.065 472.33V489H549.804V473.625C549.815 472.023 549.406 470.773 548.577 469.875C547.747 468.966 546.605 468.511 545.151 468.511C544.173 468.511 543.31 468.722 542.56 469.142C541.821 469.562 541.241 470.176 540.821 470.983C540.412 471.778 540.202 472.739 540.19 473.864ZM584.572 470.284L577.925 470.693C577.811 470.125 577.567 469.614 577.192 469.159C576.817 468.693 576.322 468.324 575.709 468.051C575.107 467.767 574.385 467.625 573.544 467.625C572.419 467.625 571.47 467.864 570.697 468.341C569.925 468.807 569.538 469.432 569.538 470.216C569.538 470.841 569.788 471.369 570.288 471.801C570.788 472.233 571.646 472.58 572.862 472.841L577.601 473.795C580.146 474.318 582.044 475.159 583.294 476.318C584.544 477.477 585.169 479 585.169 480.886C585.169 482.602 584.663 484.108 583.652 485.403C582.652 486.699 581.277 487.71 579.527 488.438C577.788 489.153 575.783 489.511 573.51 489.511C570.044 489.511 567.283 488.79 565.226 487.347C563.18 485.892 561.982 483.915 561.629 481.415L568.771 481.04C568.987 482.097 569.51 482.903 570.339 483.46C571.169 484.006 572.232 484.278 573.527 484.278C574.8 484.278 575.822 484.034 576.595 483.545C577.379 483.045 577.777 482.403 577.788 481.619C577.777 480.96 577.499 480.42 576.953 480C576.408 479.568 575.567 479.239 574.43 479.011L569.896 478.108C567.339 477.597 565.436 476.71 564.186 475.449C562.947 474.187 562.328 472.58 562.328 470.625C562.328 468.943 562.783 467.494 563.692 466.278C564.612 465.062 565.902 464.125 567.561 463.466C569.232 462.807 571.186 462.477 573.425 462.477C576.732 462.477 579.334 463.176 581.232 464.574C583.141 465.972 584.254 467.875 584.572 470.284ZM606.531 477.852V462.818H613.793V489H606.821V484.244H606.548C605.957 485.778 604.974 487.011 603.599 487.943C602.236 488.875 600.571 489.341 598.605 489.341C596.855 489.341 595.315 488.943 593.986 488.148C592.656 487.352 591.616 486.222 590.866 484.756C590.128 483.29 589.753 481.534 589.741 479.489V462.818H597.003V478.193C597.014 479.739 597.429 480.96 598.247 481.858C599.065 482.756 600.162 483.205 601.537 483.205C602.412 483.205 603.23 483.006 603.991 482.608C604.753 482.199 605.366 481.597 605.832 480.801C606.31 480.006 606.543 479.023 606.531 477.852ZM641.385 470.284L634.737 470.693C634.624 470.125 634.379 469.614 634.004 469.159C633.629 468.693 633.135 468.324 632.521 468.051C631.919 467.767 631.197 467.625 630.357 467.625C629.232 467.625 628.283 467.864 627.51 468.341C626.737 468.807 626.351 469.432 626.351 470.216C626.351 470.841 626.601 471.369 627.101 471.801C627.601 472.233 628.459 472.58 629.675 472.841L634.413 473.795C636.959 474.318 638.857 475.159 640.107 476.318C641.357 477.477 641.982 479 641.982 480.886C641.982 482.602 641.476 484.108 640.464 485.403C639.464 486.699 638.089 487.71 636.339 488.438C634.601 489.153 632.595 489.511 630.322 489.511C626.857 489.511 624.095 488.79 622.038 487.347C619.993 485.892 618.794 483.915 618.442 481.415L625.584 481.04C625.8 482.097 626.322 482.903 627.152 483.46C627.982 484.006 629.044 484.278 630.339 484.278C631.612 484.278 632.635 484.034 633.408 483.545C634.192 483.045 634.589 482.403 634.601 481.619C634.589 480.96 634.311 480.42 633.766 480C633.22 479.568 632.379 479.239 631.243 479.011L626.709 478.108C624.152 477.597 622.249 476.71 620.999 475.449C619.76 474.187 619.141 472.58 619.141 470.625C619.141 468.943 619.595 467.494 620.504 466.278C621.425 465.062 622.714 464.125 624.374 463.466C626.044 462.807 627.999 462.477 630.237 462.477C633.544 462.477 636.146 463.176 638.044 464.574C639.953 465.972 641.067 467.875 641.385 470.284Z" fill="#2D241F"/>
<defs>
<filter id="filter0_f_24_168" x="699.455" y="603.062" width="78.2221" height="87.381" filterUnits="userSpaceOnUse" color-interpolation-filters="sRGB">
<feFlood flood-opacity="0" result="BackgroundImageFix"/>
<feBlend mode="normal" in="SourceGraphic" in2="BackgroundImageFix" result="shape"/>
<feGaussianBlur stdDeviation="2.46" result="effect1_foregroundBlur_24_168"/>
</filter>
<filter id="filter1_f_24_168" x="735.615" y="503.945" width="134.224" height="136.129" filterUnits="userSpaceOnUse" color-interpolation-filters="sRGB">
<feFlood flood-opacity="0" result="BackgroundImageFix"/>
<feBlend mode="normal" in="SourceGraphic" in2="BackgroundImageFix" result="shape"/>
<feGaussianBlur stdDeviation="11.891" result="effect1_foregroundBlur_24_168"/>
</filter>
<filter id="filter2_f_24_168" x="717.484" y="620.457" width="131.081" height="157.709" filterUnits="userSpaceOnUse" color-interpolation-filters="sRGB">
<feFlood flood-opacity="0" result="BackgroundImageFix"/>
<feBlend mode="normal" in="SourceGraphic" in2="BackgroundImageFix" result="shape"/>
<feGaussianBlur stdDeviation="10.109" result="effect1_foregroundBlur_24_168"/>
</filter>
<filter id="filter3_f_24_168" x="717.484" y="620.457" width="131.081" height="157.709" filterUnits="userSpaceOnUse" color-interpolation-filters="sRGB">
<feFlood flood-opacity="0" result="BackgroundImageFix"/>
<feBlend mode="normal" in="SourceGraphic" in2="BackgroundImageFix" result="shape"/>
<feGaussianBlur stdDeviation="10.109" result="effect1_foregroundBlur_24_168"/>
</filter>
<filter id="filter4_f_24_168" x="719.646" y="628.66" width="131.724" height="135.846" filterUnits="userSpaceOnUse" color-interpolation-filters="sRGB">
<feFlood flood-opacity="0" result="BackgroundImageFix"/>
<feBlend mode="normal" in="SourceGraphic" in2="BackgroundImageFix" result="shape"/>
<feGaussianBlur stdDeviation="10.109" result="effect1_foregroundBlur_24_168"/>
</filter>
<filter id="filter5_f_24_168" x="833.723" y="564.583" width="123.662" height="120.505" filterUnits="userSpaceOnUse" color-interpolation-filters="sRGB">
<feFlood flood-opacity="0" result="BackgroundImageFix"/>
<feBlend mode="normal" in="SourceGraphic" in2="BackgroundImageFix" result="shape"/>
<feGaussianBlur stdDeviation="9.606" result="effect1_foregroundBlur_24_168"/>
</filter>
<filter id="filter6_f_24_168" x="672.406" y="551.28" width="135.44" height="136.887" filterUnits="userSpaceOnUse" color-interpolation-filters="sRGB">
<feFlood flood-opacity="0" result="BackgroundImageFix"/>
<feBlend mode="normal" in="SourceGraphic" in2="BackgroundImageFix" result="shape"/>
<feGaussianBlur stdDeviation="8.706" result="effect1_foregroundBlur_24_168"/>
</filter>
<filter id="filter7_f_24_168" x="778.405" y="572.712" width="142.092" height="138.986" filterUnits="userSpaceOnUse" color-interpolation-filters="sRGB">
<feFlood flood-opacity="0" result="BackgroundImageFix"/>
<feBlend mode="normal" in="SourceGraphic" in2="BackgroundImageFix" result="shape"/>
<feGaussianBlur stdDeviation="7.775" result="effect1_foregroundBlur_24_168"/>
</filter>
<filter id="filter8_f_24_168" x="788.974" y="541.459" width="93.9051" height="83.5417" filterUnits="userSpaceOnUse" color-interpolation-filters="sRGB">
<feFlood flood-opacity="0" result="BackgroundImageFix"/>
<feBlend mode="normal" in="SourceGraphic" in2="BackgroundImageFix" result="shape"/>
<feGaussianBlur stdDeviation="6.957" result="effect1_foregroundBlur_24_168"/>
</filter>
<filter id="filter9_f_24_168" x="718.481" y="508.844" width="133.508" height="129.905" filterUnits="userSpaceOnUse" color-interpolation-filters="sRGB">
<feFlood flood-opacity="0" result="BackgroundImageFix"/>
<feBlend mode="normal" in="SourceGraphic" in2="BackgroundImageFix" result="shape"/>
<feGaussianBlur stdDeviation="5.876" result="effect1_foregroundBlur_24_168"/>
</filter>
<filter id="filter10_f_24_168" x="725.331" y="633.945" width="90.4477" height="81.3172" filterUnits="userSpaceOnUse" color-interpolation-filters="sRGB">
<feFlood flood-opacity="0" result="BackgroundImageFix"/>
<feBlend mode="normal" in="SourceGraphic" in2="BackgroundImageFix" result="shape"/>
<feGaussianBlur stdDeviation="7.273" result="effect1_foregroundBlur_24_168"/>
</filter>
<filter id="filter11_f_24_168" x="755.409" y="592.224" width="90.4476" height="81.3172" filterUnits="userSpaceOnUse" color-interpolation-filters="sRGB">
<feFlood flood-opacity="0" result="BackgroundImageFix"/>
<feBlend mode="normal" in="SourceGraphic" in2="BackgroundImageFix" result="shape"/>
<feGaussianBlur stdDeviation="7.273" result="effect1_foregroundBlur_24_168"/>
</filter>
<linearGradient id="paint0_linear_24_168" x1="781.854" y1="666.868" x2="860.155" y2="600.855" gradientUnits="userSpaceOnUse">
<stop stop-color="#4893FC"/>
<stop offset="0.27" stop-color="#4893FC"/>
<stop offset="0.777" stop-color="#969DFF"/>
<stop offset="1" stop-color="#BD99FE"/>
</linearGradient>
<clipPath id="clip0_24_168">
<rect width="150" height="150" fill="white" transform="translate(444 51)"/>
</clipPath>
<clipPath id="clip1_24_168">
<rect width="151" height="151" fill="white" transform="translate(739 566)"/>
</clipPath>
<clipPath id="clip2_24_168">
<rect width="151" height="151" fill="white" transform="translate(114 566)"/>
</clipPath>
</defs>
</svg>
