<svg width="1024" height="768" viewBox="0 0 1024 768" fill="none" xmlns="http://www.w3.org/2000/svg">
<path d="M268.144 253.856C278.558 264.27 295.442 264.27 305.856 253.856C316.27 243.442 316.27 226.558 305.856 216.144C295.442 205.73 278.558 205.73 268.144 216.144C257.73 226.558 257.73 243.442 268.144 253.856ZM418.144 103.856C428.558 114.27 445.442 114.27 455.856 103.856C466.27 93.4422 466.27 76.5578 455.856 66.1438C445.442 55.7298 428.558 55.7298 418.144 66.1438C407.73 76.5578 407.73 93.4422 418.144 103.856ZM287 235L290.536 238.536L440.536 88.5355L437 85L433.464 81.4645L283.464 231.464L287 235Z" fill="black"/>
<path d="M437 261.667C451.728 261.667 463.667 249.728 463.667 235C463.667 220.272 451.728 208.333 437 208.333C422.272 208.333 410.333 220.272 410.333 235C410.333 249.728 422.272 261.667 437 261.667ZM437 113.667C451.728 113.667 463.667 101.728 463.667 87C463.667 72.2724 451.728 60.3333 437 60.3333C422.272 60.3333 410.333 72.2724 410.333 87C410.333 101.728 422.272 113.667 437 113.667ZM437 235L442 235L442 87L437 87L432 87L432 235L437 235Z" fill="black"/>
<path d="M587 409.667C601.728 409.667 613.667 397.728 613.667 383C613.667 368.272 601.728 356.333 587 356.333C572.272 356.333 560.333 368.272 560.333 383C560.333 397.728 572.272 409.667 587 409.667ZM587 261.667C601.728 261.667 613.667 249.728 613.667 235C613.667 220.272 601.728 208.333 587 208.333C572.272 208.333 560.333 220.272 560.333 235C560.333 249.728 572.272 261.667 587 261.667ZM587 383L592 383L592 235L587 235L582 235L582 383L587 383Z" fill="black"/>
<path d="M287 409.667C301.728 409.667 313.667 397.728 313.667 383C313.667 368.272 301.728 356.333 287 356.333C272.272 356.333 260.333 368.272 260.333 383C260.333 397.728 272.272 409.667 287 409.667ZM287 261.667C301.728 261.667 313.667 249.728 313.667 235C313.667 220.272 301.728 208.333 287 208.333C272.272 208.333 260.333 220.272 260.333 235C260.333 249.728 272.272 261.667 287 261.667ZM287 383L292 383L292 235L287 235L282 235L282 383L287 383Z" fill="black"/>
<path d="M605.856 253.856C616.27 243.442 616.27 226.558 605.856 216.144C595.442 205.73 578.558 205.73 568.144 216.144C557.73 226.558 557.73 243.442 568.144 253.856C578.558 264.27 595.442 264.27 605.856 253.856ZM455.856 103.856C466.27 93.4422 466.27 76.5578 455.856 66.1438C445.442 55.7298 428.558 55.7298 418.144 66.1438C407.73 76.5578 407.73 93.4422 418.144 103.856C428.558 114.27 445.442 114.27 455.856 103.856ZM587 235L590.536 231.464L440.536 81.4645L437 85L433.464 88.5355L583.464 238.536L587 235Z" fill="black"/>
<path d="M755.856 403.856C766.27 393.442 766.27 376.558 755.856 366.144C745.442 355.73 728.558 355.73 718.144 366.144C707.73 376.558 707.73 393.442 718.144 403.856C728.558 414.27 745.442 414.27 755.856 403.856ZM605.856 253.856C616.27 243.442 616.27 226.558 605.856 216.144C595.442 205.73 578.558 205.73 568.144 216.144C557.73 226.558 557.73 243.442 568.144 253.856C578.558 264.27 595.442 264.27 605.856 253.856ZM737 385L740.536 381.464L590.536 231.464L587 235L583.464 238.536L733.464 388.536L737 385Z" fill="black"/>
<circle cx="437" cy="85" r="50" fill="#C4B5A0"/>
<circle cx="437" cy="235" r="50" fill="#C4B5A0"/>
<path d="M587 709.667C601.728 709.667 613.667 697.728 613.667 683C613.667 668.272 601.728 656.333 587 656.333C572.272 656.333 560.333 668.272 560.333 683C560.333 697.728 572.272 709.667 587 709.667ZM587 561.667C601.728 561.667 613.667 549.728 613.667 535C613.667 520.272 601.728 508.333 587 508.333C572.272 508.333 560.333 520.272 560.333 535C560.333 549.728 572.272 561.667 587 561.667ZM587 683L592 683L592 535L587 535L582 535L582 683L587 683Z" fill="black"/>
<circle cx="587" cy="683" r="50" fill="#C4B5A0"/>
<circle cx="587" cy="235" r="50" fill="#C4B5A0"/>
<circle cx="737" cy="385" r="50" fill="#B45309"/>
<circle cx="287" cy="385" r="50" fill="#B45309"/>
<circle cx="287" cy="235" r="50" fill="#C4B5A0"/>
<path d="M418.144 553.856C428.558 564.27 445.442 564.27 455.856 553.856C466.27 543.442 466.27 526.558 455.856 516.144C445.442 505.73 428.558 505.73 418.144 516.144C407.73 526.558 407.73 543.442 418.144 553.856ZM568.144 403.856C578.558 414.27 595.442 414.27 605.856 403.856C616.27 393.442 616.27 376.558 605.856 366.144C595.442 355.73 578.558 355.73 568.144 366.144C557.73 376.558 557.73 393.442 568.144 403.856ZM437 535L440.536 538.536L590.536 388.536L587 385L583.464 381.464L433.464 531.464L437 535Z" fill="black"/>
<path d="M587 561.667C601.728 561.667 613.667 549.728 613.667 535C613.667 520.272 601.728 508.333 587 508.333C572.272 508.333 560.333 520.272 560.333 535C560.333 549.728 572.272 561.667 587 561.667ZM587 413.667C601.728 413.667 613.667 401.728 613.667 387C613.667 372.272 601.728 360.333 587 360.333C572.272 360.333 560.333 372.272 560.333 387C560.333 401.728 572.272 413.667 587 413.667ZM587 535L592 535L592 387L587 387L582 387L582 535L587 535Z" fill="black"/>
<path d="M755.856 553.856C766.27 543.442 766.27 526.558 755.856 516.144C745.442 505.73 728.558 505.73 718.144 516.144C707.73 526.558 707.73 543.442 718.144 553.856C728.558 564.27 745.442 564.27 755.856 553.856ZM605.856 403.856C616.27 393.442 616.27 376.558 605.856 366.144C595.442 355.73 578.558 355.73 568.144 366.144C557.73 376.558 557.73 393.442 568.144 403.856C578.558 414.27 595.442 414.27 605.856 403.856ZM737 535L740.536 531.464L590.536 381.464L587 385L583.464 388.536L733.464 538.536L737 535Z" fill="black"/>
<circle cx="587" cy="535" r="50" fill="#C4B5A0"/>
<circle cx="737" cy="535" r="50" fill="#C4B5A0"/>
<circle cx="437" cy="535" r="50" fill="#B45309"/>
<circle cx="587" cy="385" r="50" fill="#C4B5A0"/>
</svg>
