<svg width="1024" height="768" viewBox="0 0 1024 768" fill="none" xmlns="http://www.w3.org/2000/svg">
<g clip-path="url(#clip0_21_92)">
<path d="M358.683 365.842C360.919 359.108 361.692 351.974 360.951 344.917C360.21 337.86 357.971 331.042 354.385 324.919C349.068 315.664 340.95 308.337 331.2 303.994C321.45 299.651 310.573 298.516 300.137 300.753C294.208 294.157 286.647 289.238 278.215 286.489C269.784 283.74 260.777 283.259 252.1 285.092C243.423 286.926 235.381 291.011 228.782 296.936C222.183 302.861 217.26 310.418 214.506 318.848C207.553 320.274 200.985 323.167 195.24 327.335C189.495 331.502 184.705 336.848 181.192 343.015C175.817 352.254 173.52 362.964 174.632 373.594C175.745 384.225 180.21 394.227 187.381 402.153C185.136 408.884 184.355 416.017 185.09 423.075C185.824 430.132 188.057 436.951 191.639 443.076C196.963 452.334 205.089 459.663 214.845 464.006C224.602 468.35 235.485 469.483 245.928 467.243C250.638 472.548 256.426 476.787 262.905 479.676C269.384 482.566 276.405 484.04 283.499 484C294.196 484.01 304.62 480.62 313.265 474.321C321.91 468.021 328.33 459.137 331.598 448.952C338.549 447.523 345.117 444.629 350.862 440.462C356.606 436.294 361.396 430.949 364.912 424.784C370.223 415.558 372.48 404.889 371.362 394.303C370.243 383.717 365.805 373.754 358.683 365.842ZM283.499 470.91C274.738 470.924 266.253 467.853 259.529 462.237L260.712 461.567L300.531 438.582C301.522 438 302.345 437.171 302.918 436.176C303.492 435.181 303.797 434.053 303.803 432.904V376.763L320.637 386.502C320.72 386.544 320.792 386.605 320.847 386.68C320.902 386.756 320.938 386.843 320.953 386.935V433.457C320.932 443.384 316.979 452.898 309.96 459.917C302.94 466.936 293.426 470.889 283.499 470.91ZM202.993 436.532C198.6 428.945 197.022 420.052 198.538 411.417L199.722 412.127L239.58 435.112C240.566 435.691 241.689 435.996 242.833 435.996C243.976 435.996 245.099 435.691 246.085 435.112L294.775 407.042V426.478C294.77 426.579 294.743 426.677 294.695 426.766C294.647 426.855 294.58 426.932 294.498 426.991L254.167 450.252C245.559 455.21 235.336 456.55 225.742 453.978C216.147 451.406 207.966 445.131 202.993 436.532ZM192.507 349.797C196.931 342.161 203.914 336.338 212.219 333.357V380.667C212.204 381.81 212.496 382.936 213.065 383.927C213.633 384.919 214.458 385.74 215.452 386.304L263.905 414.257L247.071 423.994C246.98 424.043 246.878 424.068 246.775 424.068C246.672 424.068 246.57 424.043 246.479 423.994L206.227 400.773C197.636 395.793 191.368 387.612 188.796 378.021C186.225 368.429 187.559 358.21 192.507 349.6V349.797ZM330.809 381.928L282.198 353.7L298.993 344C299.084 343.952 299.186 343.926 299.289 343.926C299.392 343.926 299.494 343.952 299.585 344L339.838 367.261C345.992 370.812 351.009 376.041 354.304 382.337C357.598 388.633 359.034 395.736 358.443 402.817C357.851 409.898 355.258 416.665 350.966 422.327C346.673 427.99 340.858 432.314 334.2 434.796V387.486C334.165 386.345 333.834 385.232 333.239 384.258C332.645 383.284 331.808 382.481 330.809 381.928ZM347.565 356.736L346.382 356.026L306.603 332.844C305.61 332.262 304.481 331.955 303.33 331.955C302.179 331.955 301.05 332.262 300.058 332.844L251.408 360.914V341.478C251.398 341.38 251.415 341.28 251.456 341.19C251.498 341.099 251.563 341.022 251.645 340.966L291.898 317.744C298.067 314.19 305.12 312.466 312.234 312.774C319.347 313.081 326.225 315.408 332.064 319.482C337.904 323.555 342.463 329.207 345.208 335.776C347.953 342.345 348.771 349.56 347.566 356.577L347.565 356.736ZM242.221 391.192L225.388 381.493C225.303 381.443 225.231 381.374 225.177 381.292C225.122 381.211 225.086 381.118 225.071 381.021V334.618C225.08 327.5 227.116 320.531 230.94 314.527C234.764 308.522 240.218 303.731 246.665 300.712C253.111 297.693 260.284 296.572 267.345 297.48C274.405 298.387 281.061 301.286 286.535 305.838L285.352 306.508L245.533 329.492C244.542 330.073 243.719 330.902 243.146 331.897C242.572 332.893 242.267 334.02 242.261 335.169L242.221 391.192ZM251.368 371.48L273.051 358.982L294.775 371.48V396.475L273.13 408.972L251.408 396.475L251.368 371.48Z" fill="#C4B5A0"/>
</g>
<g clip-path="url(#clip1_21_92)">
<path d="M66.9933 236.369L106.107 214.423L106.765 212.517L106.107 211.456H104.201L97.6644 211.054L75.3154 210.45L55.9329 209.644L37.1544 208.638L32.4295 207.631L28 201.792L28.4564 198.879L32.4295 196.208L38.1208 196.705L50.698 197.564L69.5705 198.866L83.2617 199.671L103.544 201.779H106.765L107.221 200.477L106.121 199.671L105.262 198.866L85.7315 185.631L64.5906 171.644L53.5168 163.591L47.5302 159.51L44.5101 155.685L43.2081 147.336L48.6443 141.349L55.9463 141.846L57.8121 142.342L65.2081 148.034L81.0067 160.262L101.638 175.456L104.658 177.966L105.866 177.107L106.013 176.503L104.658 174.235L93.4362 153.953L81.4631 133.322L76.1342 124.772L74.7248 119.644C74.2282 117.537 73.8658 115.765 73.8658 113.604L80.0537 105.201L83.4765 104.101L91.7315 105.201L95.2081 108.222L100.336 119.953L108.644 138.423L121.53 163.537L125.302 170.987L127.315 177.886L128.067 179.993H129.369V178.785L130.43 164.638L132.389 147.268L134.295 124.919L134.953 118.624L138.067 111.081L144.255 107L149.087 109.309L153.06 115L152.51 118.678L150.148 134.034L145.517 158.087L142.497 174.195H144.255L146.268 172.181L154.416 161.362L168.107 144.248L174.148 137.456L181.195 129.953L185.718 126.383H194.268L200.564 135.738L197.745 145.403L188.94 156.57L181.638 166.034L171.168 180.128L164.631 191.403L165.235 192.302L166.792 192.154L190.443 187.121L203.221 184.812L218.47 182.195L225.369 185.416L226.121 188.691L223.409 195.389L207.101 199.416L187.973 203.242L159.49 209.98L159.141 210.235L159.544 210.732L172.376 211.94L177.866 212.235H191.302L216.322 214.101L222.859 218.423L226.779 223.711L226.121 227.738L216.054 232.866L202.47 229.644L170.765 222.101L159.893 219.389H158.389V220.289L167.45 229.148L184.054 244.141L204.846 263.47L205.906 268.248L203.235 272.02L200.416 271.617L182.148 257.872L175.101 251.685L159.141 238.248H158.081V239.658L161.758 245.04L181.181 274.235L182.188 283.188L180.779 286.101L175.745 287.859L170.215 286.852L158.846 270.893L147.114 252.919L137.651 236.812L136.497 237.47L130.913 297.617L128.295 300.691L122.255 303L117.221 299.175L114.55 292.987L117.221 280.758L120.443 264.799L123.06 252.114L125.423 236.356L126.832 231.121L126.738 230.772L125.584 230.92L113.705 247.228L95.6376 271.644L81.3423 286.946L77.9195 288.302L71.9866 285.228L72.5369 279.738L75.8524 274.852L95.6376 249.685L107.57 234.087L115.275 225.081L115.221 223.779H114.765L62.2148 257.899L52.8591 259.107L48.8322 255.336L49.3289 249.148L51.2349 247.134L67.0336 236.262L66.9799 236.315L66.9933 236.369Z" fill="#C4B5A0"/>
</g>
<g clip-path="url(#clip2_21_92)">
<mask id="mask0_21_92" style="mask-type:alpha" maskUnits="userSpaceOnUse" x="34" y="472" width="200" height="200">
<path d="M133.837 472C135.929 472 137.754 473.431 138.265 475.462C139.826 481.673 141.882 487.749 144.415 493.631C151.037 509.015 160.123 522.48 171.658 534.015C183.2 545.554 196.662 554.64 212.043 561.262C217.927 563.794 224.003 565.851 230.215 567.412C232.246 567.923 233.674 569.745 233.674 571.837C233.674 573.929 232.246 575.754 230.212 576.265C224.001 577.826 217.925 579.882 212.043 582.415C196.658 589.037 183.197 598.123 171.658 609.658C160.123 621.2 151.037 634.662 144.415 650.043C141.882 655.926 139.824 662.003 138.262 668.215C138.014 669.202 137.445 670.078 136.643 670.705C135.842 671.331 134.854 671.672 133.837 671.674C131.745 671.674 129.923 670.246 129.412 668.212C127.85 662.001 125.792 655.925 123.258 650.043C116.64 634.658 107.557 621.197 96.0154 609.658C84.4769 598.123 71.0154 589.037 55.6308 582.415C49.7484 579.882 43.6726 577.824 37.4615 576.262C36.4747 576.015 35.5984 575.446 34.9714 574.645C34.3444 573.844 34.0025 572.857 34 571.84C34 569.748 35.4308 567.926 37.4615 567.415C43.6728 565.853 49.7487 563.796 55.6308 561.262C71.0154 554.643 84.48 545.557 96.0154 534.018C107.554 522.483 116.64 509.018 123.262 493.634C125.794 487.751 127.851 481.676 129.412 475.465C129.658 474.477 130.227 473.599 131.029 472.972C131.831 472.344 132.819 472.002 133.837 472Z" fill="black"/>
<path d="M133.837 472C135.929 472 137.754 473.431 138.265 475.462C139.826 481.673 141.882 487.749 144.415 493.631C151.037 509.015 160.123 522.48 171.658 534.015C183.2 545.554 196.662 554.64 212.043 561.262C217.927 563.794 224.003 565.851 230.215 567.412C232.246 567.923 233.674 569.745 233.674 571.837C233.674 573.929 232.246 575.754 230.212 576.265C224.001 577.826 217.925 579.882 212.043 582.415C196.658 589.037 183.197 598.123 171.658 609.658C160.123 621.2 151.037 634.662 144.415 650.043C141.882 655.926 139.824 662.003 138.262 668.215C138.014 669.202 137.445 670.078 136.643 670.705C135.842 671.331 134.854 671.672 133.837 671.674C131.745 671.674 129.923 670.246 129.412 668.212C127.85 662.001 125.792 655.925 123.258 650.043C116.64 634.658 107.557 621.197 96.0154 609.658C84.4769 598.123 71.0154 589.037 55.6308 582.415C49.7484 579.882 43.6726 577.824 37.4615 576.262C36.4747 576.015 35.5984 575.446 34.9714 574.645C34.3444 573.844 34.0025 572.857 34 571.84C34 569.748 35.4308 567.926 37.4615 567.415C43.6728 565.853 49.7487 563.796 55.6308 561.262C71.0154 554.643 84.48 545.557 96.0154 534.018C107.554 522.483 116.64 509.018 123.262 493.634C125.794 487.751 127.851 481.676 129.412 475.465C129.658 474.477 130.227 473.599 131.029 472.972C131.831 472.344 132.819 472.002 133.837 472Z" fill="url(#paint0_linear_21_92)"/>
</mask>
<g mask="url(#mask0_21_92)">
<g filter="url(#filter0_f_21_92)">
<path d="M15.9723 628.105C39.0431 636.298 65.56 620.935 75.2 593.791C84.84 566.649 73.9508 538.003 50.88 529.809C27.8092 521.615 1.2923 536.978 -8.35077 564.12C-17.9877 591.265 -7.09847 619.911 15.9723 628.105Z" fill="#C4B5A0"/>
</g>
<g filter="url(#filter1_f_21_92)">
<path d="M118.409 538.612C150.102 538.612 175.797 512.351 175.797 479.96C175.797 447.566 150.105 421.308 118.409 421.308C86.7138 421.308 61.0154 447.569 61.0154 479.96C61.0154 512.351 86.7108 538.612 118.409 538.612Z" fill="#C4B5A0"/>
</g>
<g filter="url(#filter2_f_21_92)">
<path d="M96.1046 726.178C129.191 724.563 154.314 688.505 152.218 645.643C150.126 602.782 121.603 569.345 88.5169 570.963C55.4308 572.582 30.3077 608.637 32.4031 651.498C34.4984 694.36 63.0184 727.797 96.1046 726.178Z" fill="#C4B5A0"/>
</g>
<g filter="url(#filter3_f_21_92)">
<path d="M96.1046 726.178C129.191 724.563 154.314 688.505 152.218 645.643C150.126 602.782 121.603 569.345 88.5169 570.963C55.4308 572.582 30.3077 608.637 32.4031 651.498C34.4984 694.36 63.0184 727.797 96.1046 726.178Z" fill="#C4B5A0"/>
</g>
<g filter="url(#filter4_f_21_92)">
<path d="M129.243 700.249C156.978 683.372 164.403 644.938 145.825 614.403C127.246 583.865 89.6984 572.791 61.96 589.665C34.2215 606.545 26.7969 644.978 45.3754 675.517C63.96 706.052 101.505 717.126 129.243 700.249Z" fill="#C4B5A0"/>
</g>
<g filter="url(#filter5_f_21_92)">
<path d="M241.357 604.286C272.532 604.286 297.806 579.948 297.806 549.929C297.806 519.908 272.532 495.569 241.357 495.569C210.182 495.569 184.908 519.908 184.908 549.929C184.908 579.951 210.182 604.286 241.357 604.286Z" fill="#C4B5A0"/>
</g>
<g filter="url(#filter6_f_21_92)">
<path d="M-6.20001 597.982C22.5077 619.809 64.4431 612.963 87.4677 582.683C110.492 552.406 105.889 510.163 77.1815 488.335C48.4738 466.505 6.54153 473.351 -16.4862 503.631C-39.5108 533.908 -34.9046 576.154 -6.20001 597.982Z" fill="#C4B5A0"/>
</g>
<g filter="url(#filter7_f_21_92)">
<path d="M140.892 630.246C175.154 653.803 220.572 647.243 242.332 615.588C264.095 583.935 253.96 539.182 219.695 515.625C185.431 492.062 140.015 498.628 118.252 530.277C96.4923 561.932 106.625 606.686 140.889 630.246H140.892Z" fill="#C4B5A0"/>
</g>
<g filter="url(#filter8_f_21_92)">
<path d="M203.182 464.812C211.898 476.665 200.695 499.705 178.163 516.28C155.628 532.855 130.295 536.683 121.578 524.834C112.862 512.978 124.062 489.935 146.594 473.363C169.129 456.788 194.465 452.96 203.178 464.809L203.182 464.812Z" fill="#C4B5A0"/>
</g>
<g filter="url(#filter9_f_21_92)">
<path d="M131.622 521.551C166.471 489.225 178.431 445.458 158.338 423.797C138.246 402.135 93.7046 410.775 58.8554 443.102C24.0061 475.428 12.0431 519.194 32.1385 540.855C52.2308 562.517 96.7723 553.877 131.622 521.551Z" fill="#C4B5A0"/>
</g>
<g filter="url(#filter10_f_21_92)">
<path d="M60.1846 637.655C80.8985 652.48 104.677 654.732 113.298 642.689C121.92 630.643 112.117 608.862 91.4031 594.037C70.6923 579.212 46.9108 576.96 38.2923 589.003C29.6708 601.049 39.4708 622.831 60.1846 637.655Z" fill="#C4B5A0"/>
</g>
<g filter="url(#filter11_f_21_92)">
<path d="M100.022 582.395C120.736 597.22 144.515 599.472 153.136 587.429C161.758 575.383 151.955 553.602 131.241 538.777C110.53 523.952 86.7485 521.7 78.1301 533.743C69.5085 545.789 79.3085 567.571 100.022 582.395Z" fill="#C4B5A0"/>
</g>
</g>
</g>
<path d="M627.536 387.536C629.488 385.583 629.488 382.417 627.536 380.464L595.716 348.645C593.763 346.692 590.597 346.692 588.645 348.645C586.692 350.597 586.692 353.763 588.645 355.716L616.929 384L588.645 412.284C586.692 414.237 586.692 417.403 588.645 419.355C590.597 421.308 593.763 421.308 595.716 419.355L627.536 387.536ZM400 384V389H624V384V379H400V384Z" fill="#2D241F"/>
<path d="M928.963 377.37H743.333V390.63H928.963V377.37Z" fill="#B45309"/>
<path d="M716.815 423.778C738.783 423.778 756.593 405.969 756.593 384C756.593 362.031 738.783 344.222 716.815 344.222C694.846 344.222 677.037 362.031 677.037 384C677.037 405.969 694.846 423.778 716.815 423.778Z" fill="#B45309"/>
<path d="M809.63 423.778C831.598 423.778 849.407 405.969 849.407 384C849.407 362.031 831.598 344.222 809.63 344.222C787.661 344.222 769.852 362.031 769.852 384C769.852 405.969 787.661 423.778 809.63 423.778Z" fill="#B45309"/>
<path d="M902.444 423.778C924.413 423.778 942.222 405.969 942.222 384C942.222 362.031 924.413 344.222 902.444 344.222C880.476 344.222 862.667 362.031 862.667 384C862.667 405.969 880.476 423.778 902.444 423.778Z" fill="#2D241F"/>
<defs>
<filter id="filter0_f_21_92" x="-16.7806" y="522.685" width="100.412" height="112.543" filterUnits="userSpaceOnUse" color-interpolation-filters="sRGB">
<feFlood flood-opacity="0" result="BackgroundImageFix"/>
<feBlend mode="normal" in="SourceGraphic" in2="BackgroundImageFix" result="shape"/>
<feGaussianBlur stdDeviation="2.46" result="effect1_foregroundBlur_21_92"/>
</filter>
<filter id="filter1_f_21_92" x="37.2334" y="397.526" width="162.346" height="164.869" filterUnits="userSpaceOnUse" color-interpolation-filters="sRGB">
<feFlood flood-opacity="0" result="BackgroundImageFix"/>
<feBlend mode="normal" in="SourceGraphic" in2="BackgroundImageFix" result="shape"/>
<feGaussianBlur stdDeviation="11.891" result="effect1_foregroundBlur_21_92"/>
</filter>
<filter id="filter2_f_21_92" x="12.063" y="550.689" width="160.496" height="195.764" filterUnits="userSpaceOnUse" color-interpolation-filters="sRGB">
<feFlood flood-opacity="0" result="BackgroundImageFix"/>
<feBlend mode="normal" in="SourceGraphic" in2="BackgroundImageFix" result="shape"/>
<feGaussianBlur stdDeviation="10.109" result="effect1_foregroundBlur_21_92"/>
</filter>
<filter id="filter3_f_21_92" x="12.063" y="550.689" width="160.496" height="195.764" filterUnits="userSpaceOnUse" color-interpolation-filters="sRGB">
<feFlood flood-opacity="0" result="BackgroundImageFix"/>
<feBlend mode="normal" in="SourceGraphic" in2="BackgroundImageFix" result="shape"/>
<feGaussianBlur stdDeviation="10.109" result="effect1_foregroundBlur_21_92"/>
</filter>
<filter id="filter4_f_21_92" x="14.9261" y="561.555" width="161.348" height="166.807" filterUnits="userSpaceOnUse" color-interpolation-filters="sRGB">
<feFlood flood-opacity="0" result="BackgroundImageFix"/>
<feBlend mode="normal" in="SourceGraphic" in2="BackgroundImageFix" result="shape"/>
<feGaussianBlur stdDeviation="10.109" result="effect1_foregroundBlur_21_92"/>
</filter>
<filter id="filter5_f_21_92" x="165.696" y="476.357" width="151.322" height="147.141" filterUnits="userSpaceOnUse" color-interpolation-filters="sRGB">
<feFlood flood-opacity="0" result="BackgroundImageFix"/>
<feBlend mode="normal" in="SourceGraphic" in2="BackgroundImageFix" result="shape"/>
<feGaussianBlur stdDeviation="9.606" result="effect1_foregroundBlur_21_92"/>
</filter>
<filter id="filter6_f_21_92" x="-48.5542" y="458.154" width="168.091" height="170.007" filterUnits="userSpaceOnUse" color-interpolation-filters="sRGB">
<feFlood flood-opacity="0" result="BackgroundImageFix"/>
<feBlend mode="normal" in="SourceGraphic" in2="BackgroundImageFix" result="shape"/>
<feGaussianBlur stdDeviation="8.706" result="effect1_foregroundBlur_21_92"/>
</filter>
<filter id="filter7_f_21_92" x="91.2382" y="485.936" width="178.11" height="173.996" filterUnits="userSpaceOnUse" color-interpolation-filters="sRGB">
<feFlood flood-opacity="0" result="BackgroundImageFix"/>
<feBlend mode="normal" in="SourceGraphic" in2="BackgroundImageFix" result="shape"/>
<feGaussianBlur stdDeviation="7.775" result="effect1_foregroundBlur_21_92"/>
</filter>
<filter id="filter8_f_21_92" x="104.706" y="444.011" width="115.347" height="101.621" filterUnits="userSpaceOnUse" color-interpolation-filters="sRGB">
<feFlood flood-opacity="0" result="BackgroundImageFix"/>
<feBlend mode="normal" in="SourceGraphic" in2="BackgroundImageFix" result="shape"/>
<feGaussianBlur stdDeviation="6.957" result="effect1_foregroundBlur_21_92"/>
</filter>
<filter id="filter9_f_21_92" x="10.6358" y="400.11" width="169.204" height="164.433" filterUnits="userSpaceOnUse" color-interpolation-filters="sRGB">
<feFlood flood-opacity="0" result="BackgroundImageFix"/>
<feBlend mode="normal" in="SourceGraphic" in2="BackgroundImageFix" result="shape"/>
<feGaussianBlur stdDeviation="5.876" result="effect1_foregroundBlur_21_92"/>
</filter>
<filter id="filter10_f_21_92" x="20.6162" y="566.714" width="110.358" height="98.2645" filterUnits="userSpaceOnUse" color-interpolation-filters="sRGB">
<feFlood flood-opacity="0" result="BackgroundImageFix"/>
<feBlend mode="normal" in="SourceGraphic" in2="BackgroundImageFix" result="shape"/>
<feGaussianBlur stdDeviation="7.273" result="effect1_foregroundBlur_21_92"/>
</filter>
<filter id="filter11_f_21_92" x="60.454" y="511.454" width="110.358" height="98.2645" filterUnits="userSpaceOnUse" color-interpolation-filters="sRGB">
<feFlood flood-opacity="0" result="BackgroundImageFix"/>
<feBlend mode="normal" in="SourceGraphic" in2="BackgroundImageFix" result="shape"/>
<feGaussianBlur stdDeviation="7.273" result="effect1_foregroundBlur_21_92"/>
</filter>
<linearGradient id="paint0_linear_21_92" x1="90.76" y1="605.6" x2="194.471" y2="518.166" gradientUnits="userSpaceOnUse">
<stop stop-color="#4893FC"/>
<stop offset="0.27" stop-color="#4893FC"/>
<stop offset="0.777" stop-color="#969DFF"/>
<stop offset="1" stop-color="#BD99FE"/>
</linearGradient>
<clipPath id="clip0_21_92">
<rect width="200" height="200" fill="white" transform="translate(173 284)"/>
</clipPath>
<clipPath id="clip1_21_92">
<rect width="200" height="200" fill="white" transform="translate(28 103)"/>
</clipPath>
<clipPath id="clip2_21_92">
<rect width="200" height="200" fill="white" transform="translate(34 472)"/>
</clipPath>
</defs>
</svg>
